<svg 
 xmlns="http://www.w3.org/2000/svg"
 xmlns:xlink="http://www.w3.org/1999/xlink"
 width="52px" height="51px">
<path fill-rule="evenodd"  fill="rgb(246, 70, 108)"
 d="M38.565,18.146 C38.919,18.892 39.098,19.594 39.098,20.236 C39.098,22.653 36.631,25.125 35.820,25.938 C35.207,26.552 33.439,27.698 31.883,28.657 C33.084,28.921 33.772,29.040 34.294,29.131 C35.432,29.327 35.857,29.400 39.064,30.513 C41.176,31.245 42.430,33.447 41.980,35.636 L39.831,46.069 L41.336,46.446 C42.567,46.754 43.533,47.678 43.899,48.881 L50.938,48.881 C51.517,48.881 51.988,49.353 51.988,49.933 C51.988,50.513 51.517,50.984 50.938,50.984 L1.359,50.984 C0.778,50.984 0.307,50.513 0.307,49.933 C0.307,49.353 0.778,48.881 1.359,48.881 L1.946,48.881 C1.785,48.575 1.609,48.116 1.140,46.897 L0.512,45.268 C-0.005,43.931 0.467,42.441 1.658,41.644 L7.903,37.474 L12.094,33.942 C18.138,28.848 18.138,28.848 19.817,27.742 L20.283,27.433 C20.665,27.178 20.756,27.117 20.952,27.072 C21.010,27.028 21.953,26.301 22.757,25.543 C22.962,25.351 23.235,25.263 23.510,25.257 C23.790,25.265 24.051,25.382 24.243,25.588 C24.435,25.791 24.536,26.058 24.528,26.338 C24.520,26.620 24.403,26.881 24.199,27.073 C23.480,27.750 22.738,28.363 21.993,28.896 C21.462,30.427 21.836,33.167 23.657,34.110 C23.875,34.224 24.189,34.345 24.391,34.414 C26.069,34.997 26.585,34.991 28.129,34.979 C29.557,34.964 31.707,34.943 36.256,35.357 C36.541,35.383 36.796,35.519 36.977,35.740 C37.156,35.962 37.237,36.239 37.205,36.523 L36.816,39.948 L38.947,39.948 L39.922,35.210 C40.160,34.056 39.500,32.894 38.389,32.506 C35.295,31.441 34.884,31.370 33.787,31.177 C32.989,31.036 31.782,30.824 28.918,30.122 L26.018,29.760 C25.739,29.725 25.491,29.584 25.318,29.362 C25.146,29.140 25.070,28.865 25.105,28.586 C25.141,28.307 25.281,28.058 25.502,27.886 C25.724,27.714 25.997,27.636 26.278,27.672 L28.899,28.000 C31.125,26.688 33.751,25.034 34.330,24.455 C36.099,22.682 36.996,21.262 36.996,20.236 C36.996,20.100 36.976,19.948 36.936,19.781 C36.893,19.824 36.853,19.864 36.815,19.904 C36.271,20.462 36.067,20.671 35.608,20.671 C35.175,20.671 34.804,20.420 34.637,20.019 C34.473,19.619 34.559,19.181 34.865,18.876 L49.579,4.147 C49.778,3.948 49.887,3.684 49.887,3.402 C49.887,2.886 49.551,2.562 49.235,2.431 C48.921,2.301 48.453,2.291 48.090,2.656 C47.692,3.055 47.002,3.055 46.604,2.656 C46.405,2.458 46.296,2.194 46.296,1.913 C46.296,1.633 46.405,1.368 46.604,1.169 C47.519,0.253 48.834,-0.007 50.037,0.491 C51.240,0.991 51.988,2.107 51.988,3.402 C51.988,4.246 51.660,5.038 51.064,5.634 L38.565,18.146 ZM8.016,39.926 L2.824,43.393 C2.457,43.637 2.312,44.096 2.472,44.508 L3.688,47.651 L3.688,47.650 C3.957,48.343 4.613,48.819 5.342,48.875 L4.656,44.925 C4.583,44.506 4.768,44.087 5.126,43.857 L8.664,41.603 L8.016,39.926 ZM19.661,30.402 C18.735,31.093 17.372,32.241 13.367,35.616 L9.772,38.644 L10.511,40.552 C13.796,38.868 16.720,37.580 19.081,36.541 C20.046,36.116 20.940,35.722 21.761,35.346 C20.463,34.223 19.674,32.363 19.661,30.402 ZM28.281,37.082 C26.652,37.090 25.898,37.094 24.138,36.543 C22.960,37.127 21.640,37.712 19.918,38.469 C11.877,42.010 10.520,42.885 7.818,44.629 C7.515,44.825 7.194,45.032 6.845,45.254 L7.475,48.881 L33.733,48.881 C33.559,48.344 33.539,47.764 33.678,47.211 C33.743,46.952 33.793,46.764 33.835,46.607 C34.038,45.854 34.038,45.854 34.478,41.933 C34.608,40.782 34.775,39.296 34.996,37.357 C31.487,37.066 29.561,37.076 28.281,37.082 ZM37.569,46.633 L38.513,42.051 L36.576,42.051 C36.470,42.981 36.392,43.688 36.331,44.237 C36.118,46.167 36.118,46.167 35.901,47.001 C35.852,47.187 35.792,47.417 35.715,47.721 C35.646,48.002 35.707,48.294 35.885,48.522 C36.062,48.750 36.331,48.881 36.621,48.881 L41.521,48.881 C41.332,48.691 41.092,48.553 40.826,48.487 L38.344,47.863 C37.796,47.728 37.455,47.187 37.569,46.633 ZM33.376,17.386 C33.176,17.585 32.912,17.694 32.633,17.694 C32.201,17.694 31.830,17.444 31.663,17.042 C31.497,16.642 31.584,16.203 31.889,15.898 L32.860,14.928 L32.672,14.787 C32.332,14.651 32.002,14.489 31.685,14.303 C30.925,17.008 29.840,19.525 28.457,21.787 C28.259,22.110 27.913,22.289 27.559,22.289 C27.372,22.289 27.184,22.240 27.013,22.136 C26.773,21.988 26.606,21.758 26.540,21.485 C26.474,21.211 26.519,20.929 26.666,20.688 C28.098,18.343 29.185,15.703 29.897,12.837 C28.883,11.704 28.270,10.327 28.113,8.835 C27.160,8.815 26.271,8.365 25.699,7.602 C25.095,6.796 24.935,5.750 25.269,4.804 L25.805,3.279 C26.204,2.149 27.206,1.375 28.420,1.259 C29.557,1.152 30.632,1.647 31.264,2.564 C33.887,1.368 36.982,2.332 38.391,4.817 C39.128,6.116 39.117,7.157 39.102,8.596 C39.102,8.624 39.102,8.652 39.102,8.680 L42.142,5.636 C43.299,4.477 43.937,2.936 43.937,1.296 C43.937,0.716 44.409,0.245 44.988,0.245 C45.567,0.245 46.038,0.716 46.038,1.296 C46.038,3.499 45.182,5.568 43.627,7.123 L33.376,17.386 ZM29.530,3.754 C29.348,3.495 29.043,3.341 28.716,3.341 C28.294,3.341 27.921,3.597 27.786,3.978 L27.250,5.504 C27.098,5.934 27.297,6.301 27.534,6.500 C27.792,6.716 28.232,6.856 28.692,6.595 C29.013,6.411 29.089,6.212 29.396,5.301 C29.467,5.092 29.548,4.851 29.647,4.571 C29.744,4.294 29.702,3.996 29.530,3.754 ZM36.996,7.529 C35.940,8.393 34.585,8.881 33.203,8.881 C32.527,8.881 32.159,8.342 32.156,7.836 C32.152,7.333 32.495,6.786 33.256,6.776 C34.414,6.760 35.502,6.231 36.205,5.351 C35.116,4.084 33.226,3.790 31.774,4.669 C31.731,4.996 31.634,5.267 31.334,6.111 L31.091,6.797 C30.910,7.307 30.593,7.761 30.173,8.114 C30.187,8.928 30.378,9.688 30.730,10.373 L30.924,9.891 C31.117,9.411 31.625,9.149 32.130,9.261 C32.432,9.329 32.686,9.526 32.828,9.797 C32.971,10.071 32.987,10.393 32.871,10.679 L32.270,12.174 C32.958,12.684 33.766,13.022 34.626,13.160 L36.996,10.786 L36.997,8.952 C36.998,8.199 36.998,7.779 36.996,7.529 ZM26.423,22.978 C26.877,23.337 26.956,23.999 26.597,24.453 L26.502,24.574 L26.278,24.451 L26.473,24.609 C26.264,24.868 25.957,25.004 25.647,25.004 C25.417,25.004 25.186,24.928 24.994,24.774 C24.542,24.409 24.468,23.747 24.831,23.297 L24.946,23.153 C25.121,22.930 25.370,22.791 25.649,22.758 C25.931,22.724 26.203,22.803 26.423,22.978 Z"/>
</svg>