<svg 
 xmlns="http://www.w3.org/2000/svg"
 xmlns:xlink="http://www.w3.org/1999/xlink"
 width="52px" height="51px">
<path fill-rule="evenodd"  fill="rgb(253, 92, 127)"
 d="M40.594,50.975 L37.461,50.975 C36.689,50.973 35.918,50.888 35.168,50.721 C34.802,50.888 34.401,50.975 33.999,50.975 L3.828,50.975 C2.248,50.975 0.962,49.690 0.962,48.109 L0.962,7.882 C0.962,6.302 2.248,5.016 3.828,5.016 L7.097,5.016 C7.558,4.009 8.571,3.345 9.693,3.340 L13.941,3.340 C14.756,1.324 16.723,-0.013 18.913,-0.013 C21.103,-0.013 23.071,1.324 23.886,3.340 L28.133,3.340 C29.255,3.345 30.269,4.009 30.729,5.016 L33.999,5.016 C35.579,5.016 36.865,6.302 36.865,7.882 L36.865,21.864 C37.647,22.559 38.273,23.416 38.697,24.370 C39.735,22.278 41.404,20.539 43.466,19.420 C44.018,19.109 44.740,19.305 45.066,19.857 C45.396,20.418 45.224,21.127 44.672,21.471 C41.647,23.257 40.542,25.507 40.189,27.299 C40.392,27.188 40.607,27.094 40.828,27.017 L40.955,26.981 C41.322,26.868 41.734,26.807 42.151,26.806 L43.991,26.806 C48.380,26.806 51.950,30.599 51.950,35.261 L51.950,38.890 C51.950,45.554 46.856,50.975 40.594,50.975 ZM6.828,7.396 L3.828,7.396 C3.560,7.396 3.342,7.614 3.342,7.882 L3.342,48.109 C3.342,48.377 3.560,48.596 3.828,48.596 L30.716,48.596 C30.331,48.294 29.966,47.969 29.624,47.622 L6.342,47.622 C5.224,47.622 4.314,46.713 4.314,45.595 L4.314,10.396 C4.314,9.278 5.224,8.368 6.342,8.368 L6.828,8.368 L6.828,7.396 ZM28.619,6.206 C28.619,5.938 28.401,5.720 28.133,5.720 L23.020,5.720 C22.819,5.728 22.601,5.668 22.421,5.545 C22.377,5.526 22.299,5.474 22.228,5.413 C22.168,5.354 22.131,5.313 22.097,5.268 C22.052,5.217 22.003,5.144 21.963,5.067 C21.932,5.002 21.911,4.948 21.894,4.894 C21.890,4.890 21.872,4.847 21.859,4.804 C21.565,3.376 20.328,2.367 18.909,2.367 C17.490,2.367 16.254,3.376 15.969,4.766 L15.908,4.929 C15.907,4.948 15.875,5.024 15.835,5.097 C15.727,5.296 15.564,5.459 15.364,5.566 C15.293,5.604 15.219,5.635 15.143,5.657 C15.075,5.678 15.001,5.692 14.926,5.700 L14.807,5.720 L9.695,5.720 C9.426,5.720 9.208,5.938 9.208,6.206 L9.208,9.559 C9.208,9.826 9.426,10.044 9.695,10.044 L28.133,10.044 C28.401,10.044 28.619,9.826 28.619,9.559 L28.619,6.206 ZM28.134,12.424 L9.693,12.424 C8.572,12.420 7.558,11.756 7.097,10.749 L6.694,10.749 L6.694,45.244 L27.811,45.244 C26.686,43.315 26.098,41.131 26.104,38.889 L26.104,35.261 C26.066,32.205 27.715,29.331 30.344,27.806 C28.549,25.993 28.484,22.998 28.753,21.431 C28.889,20.819 29.277,20.256 31.133,20.131 L31.133,10.749 L30.729,10.749 C30.269,11.756 29.255,12.420 28.134,12.424 ZM34.485,7.882 C34.485,7.614 34.267,7.396 33.999,7.396 L30.998,7.396 L30.998,8.368 L31.485,8.368 C32.603,8.368 33.513,9.278 33.513,10.396 L33.513,20.238 C33.843,20.298 34.168,20.382 34.485,20.488 L34.485,7.882 ZM36.649,25.663 L36.624,25.590 C35.995,23.749 34.265,22.501 32.320,22.484 C31.877,22.476 31.450,22.502 31.024,22.541 C30.950,23.868 31.124,26.371 33.394,26.826 L33.442,26.836 C33.647,26.818 33.854,26.806 34.064,26.806 L35.897,26.806 C36.265,26.806 36.627,26.854 36.980,26.950 C36.896,26.514 36.785,26.084 36.649,25.663 ZM49.570,35.261 C49.570,31.912 47.067,29.186 43.990,29.184 L42.140,29.184 C41.949,29.187 41.760,29.218 41.579,29.277 C40.730,29.617 40.190,30.446 40.217,31.343 L40.217,32.186 C40.217,32.842 39.683,33.376 39.027,33.376 C38.371,33.376 37.838,32.842 37.838,32.186 L37.838,31.356 C37.862,30.448 37.318,29.621 36.485,29.287 C36.307,29.223 36.109,29.188 35.908,29.186 L34.064,29.186 C30.988,29.186 28.484,31.911 28.484,35.261 L28.484,38.890 C28.484,44.242 32.511,48.596 37.461,48.596 L40.594,48.596 C45.544,48.596 49.570,44.242 49.570,38.890 L49.570,35.261 ZM33.546,32.475 C33.480,32.498 31.836,33.110 31.836,35.538 C31.836,36.195 31.303,36.729 30.647,36.729 C29.990,36.729 29.456,36.195 29.456,35.538 C29.456,31.362 32.634,30.268 32.786,30.219 C33.087,30.117 33.408,30.139 33.692,30.280 C33.977,30.420 34.190,30.664 34.293,30.965 C34.394,31.267 34.372,31.589 34.232,31.874 C34.091,32.160 33.848,32.373 33.546,32.475 ZM28.133,19.129 L16.399,19.129 C15.743,19.129 15.209,18.595 15.209,17.938 C15.209,17.283 15.743,16.749 16.399,16.749 L28.133,16.749 C28.789,16.749 29.322,17.283 29.322,17.938 C29.322,18.595 28.789,19.129 28.133,19.129 ZM12.209,43.433 L9.695,43.433 C8.576,43.433 7.666,42.523 7.666,41.404 L7.666,38.890 C7.666,37.773 8.576,36.863 9.695,36.863 L12.209,36.863 C13.327,36.863 14.237,37.773 14.237,38.890 L14.237,41.404 C14.237,42.523 13.327,43.433 12.209,43.433 ZM11.857,39.242 L10.047,39.242 L10.047,41.053 L11.857,41.053 L11.857,39.242 ZM12.209,35.890 L9.695,35.890 C8.576,35.890 7.666,34.980 7.666,33.862 L7.666,31.348 C7.666,30.230 8.576,29.320 9.695,29.320 L12.209,29.320 C13.327,29.320 14.237,30.230 14.237,31.348 L14.237,33.862 C14.237,34.980 13.327,35.890 12.209,35.890 ZM11.857,31.700 L10.047,31.700 L10.047,33.510 L11.857,33.510 L11.857,31.700 ZM12.209,28.347 L9.695,28.347 C8.576,28.347 7.666,27.438 7.666,26.319 L7.666,23.805 C7.666,22.687 8.576,21.777 9.695,21.777 L12.209,21.777 C13.327,21.777 14.237,22.687 14.237,23.805 L14.237,26.319 C14.237,27.438 13.327,28.347 12.209,28.347 ZM11.857,24.157 L10.047,24.157 L10.047,25.967 L11.857,25.967 L11.857,24.157 ZM12.209,20.805 L9.695,20.805 C8.576,20.805 7.666,19.895 7.666,18.777 L7.666,16.263 C7.666,15.144 8.576,14.235 9.695,14.235 L12.209,14.235 C13.327,14.235 14.237,15.144 14.237,16.263 L14.237,18.777 C14.237,19.895 13.327,20.805 12.209,20.805 ZM11.857,16.615 L10.047,16.615 L10.047,18.425 L11.857,18.425 L11.857,16.615 ZM16.399,24.291 L25.618,24.291 C26.274,24.291 26.808,24.825 26.808,25.481 C26.808,26.137 26.274,26.671 25.618,26.671 L16.399,26.671 C15.743,26.671 15.209,26.137 15.209,25.481 C15.209,24.825 15.743,24.291 16.399,24.291 ZM16.399,31.835 L23.942,31.835 C24.598,31.835 25.132,32.368 25.132,33.024 C25.132,33.680 24.598,34.213 23.942,34.213 L16.399,34.213 C15.743,34.213 15.209,33.680 15.209,33.024 C15.209,32.368 15.743,31.835 16.399,31.835 ZM16.399,39.377 L23.942,39.377 C24.598,39.377 25.132,39.911 25.132,40.567 C25.132,41.223 24.598,41.756 23.942,41.756 L16.399,41.756 C15.743,41.756 15.209,41.223 15.209,40.567 C15.209,39.911 15.743,39.377 16.399,39.377 ZM26.456,9.072 L15.561,9.072 C14.905,9.072 14.371,8.539 14.371,7.882 C14.371,7.226 14.905,6.692 15.561,6.692 L26.456,6.692 C27.112,6.692 27.646,7.226 27.646,7.882 C27.646,8.539 27.112,9.072 26.456,9.072 ZM12.209,9.072 L11.371,9.072 C10.715,9.072 10.181,8.539 10.181,7.882 C10.181,7.226 10.715,6.692 11.371,6.692 L12.209,6.692 C12.865,6.692 13.399,7.226 13.399,7.882 C13.399,8.539 12.865,9.072 12.209,9.072 Z"/>
</svg>